<svg width="16" height="16" viewBox="0 0 16 16" fill="none" xmlns="http://www.w3.org/2000/svg">
<path d="M12 1.33325C11.4 1.33325 10.6667 1.99992 10.6667 2.66659H5.33337C5.33337 1.99992 4.60004 1.33325 4.00004 1.33325H1.33337V7.33325C1.33337 7.99992 2.00004 8.66658 2.66671 8.66658H4.13337C4.40004 9.99992 5.26671 11.1333 7.33337 11.3333V12.7199C5.33337 13.0266 5.33337 14.6666 5.33337 14.6666H10.6667C10.6667 14.6666 10.6667 13.0266 8.66671 12.7199V11.3333C10.7334 11.1333 11.6 9.99992 11.8667 8.66658H13.3334C14 8.66658 14.6667 7.99992 14.6667 7.33325V1.33325H12ZM4.00004 7.33325H2.66671V2.66659H4.00004V7.33325ZM10.6667 7.66658C10.6667 8.95325 10.28 9.99992 8.00004 9.99992C5.72671 9.99992 5.33337 8.95325 5.33337 7.66658V3.99992H10.6667V7.66658ZM13.3334 7.33325H12V2.66659H13.3334V7.33325Z" fill="#666666"/>
</svg>
