<svg width="12" height="15" viewBox="0 0 12 15" fill="none" xmlns="http://www.w3.org/2000/svg">
<path d="M6.14043 9.66309H1.96782C1.8971 9.66309 1.82928 9.69118 1.77927 9.74119C1.72927 9.79119 1.70117 9.85902 1.70117 9.92974C1.70117 10.0005 1.72927 10.0683 1.77927 10.1183C1.82928 10.1683 1.8971 10.1964 1.96782 10.1964H5.93303C5.93778 9.99986 6.01116 9.81119 6.14043 9.66309Z" fill="#585858"/>
<path d="M8.0144 6.16675H1.96782C1.8971 6.16675 1.82928 6.19484 1.77927 6.24485C1.72927 6.29486 1.70117 6.36268 1.70117 6.4334C1.70117 6.50412 1.72927 6.57194 1.77927 6.62195C1.82928 6.67196 1.8971 6.70005 1.96782 6.70005H8.0144C8.08512 6.70005 8.15295 6.67196 8.20295 6.62195C8.25296 6.57194 8.28105 6.50412 8.28105 6.4334C8.28105 6.36268 8.25296 6.29486 8.20295 6.24485C8.15295 6.19484 8.08512 6.16675 8.0144 6.16675Z" fill="#585858"/>
<path d="M9.50811 9.94936V13.5664C9.50811 13.6025 9.49381 13.637 9.46834 13.6625C9.44287 13.6879 9.40833 13.7022 9.37232 13.7022H0.846866C0.810851 13.7022 0.776312 13.6879 0.750845 13.6625C0.725379 13.637 0.711072 13.6025 0.711072 13.5664V1.43378C0.711719 1.3982 0.726311 1.36429 0.751707 1.33935C0.777104 1.31442 0.811275 1.30045 0.846866 1.30045H7.29342V3.36207C7.29407 3.45659 7.33208 3.54702 7.39915 3.61362C7.46621 3.68023 7.5569 3.71761 7.65143 3.7176H9.50811V4.4583C9.52539 4.4583 9.65872 4.2114 9.67847 4.2114C9.85377 3.97685 9.92537 4.00154 10.0439 3.9645H10.2142V3.20899L7.80697 0.586914H0.846866C0.622464 0.587565 0.407438 0.676998 0.248761 0.835675C0.0900839 0.994352 0.000651391 1.20938 0 1.43378V13.5664C0.000651391 13.7908 0.0900839 14.0059 0.248761 14.1645C0.407438 14.3232 0.622464 14.4127 0.846866 14.4133H9.37232C9.59672 14.4127 9.81175 14.3232 9.97042 14.1645C10.1291 14.0059 10.2185 13.7908 10.2192 13.5664V8.7988C10.1402 8.90744 10.0636 9.02101 9.99204 9.13706C9.7991 9.38768 9.63665 9.66036 9.50811 9.94936ZM8.00696 1.85598L9.06369 3.00406H8.00696V1.85598Z" fill="#585858"/>
<path d="M7.3058 7.90015H1.96782C1.8971 7.90015 1.82928 7.92824 1.77927 7.97825C1.72927 8.02825 1.70117 8.09608 1.70117 8.1668C1.70117 8.23752 1.72927 8.30534 1.77927 8.35535C1.82928 8.40536 1.8971 8.43345 1.96782 8.43345H6.95273L7.3058 7.90015Z" fill="#585858"/>
<path d="M3.77746 12.6431C3.79475 12.7517 3.92313 12.7863 4.00708 12.8208C4.09103 12.8554 4.18485 12.7912 4.25398 12.7566C4.67124 12.5542 5.24158 12.7937 5.68106 12.7937C5.73541 12.7937 5.78753 12.7721 5.82597 12.7336C5.8644 12.6952 5.88599 12.6431 5.88599 12.5887C5.88599 12.5344 5.8644 12.4823 5.82597 12.4438C5.78753 12.4054 5.73541 12.3838 5.68106 12.3838C5.1601 12.3838 4.72803 12.2505 4.19966 12.3369C4.19672 12.292 4.18227 12.2487 4.15769 12.211C4.12889 12.1463 4.07982 12.0928 4.01791 12.0585C3.95599 12.0242 3.88459 12.011 3.8145 12.0209C3.80751 12.0002 3.79841 11.9804 3.78734 11.9616C3.77335 11.9384 3.75474 11.9183 3.73265 11.9026C3.71056 11.8869 3.68548 11.8759 3.65895 11.8703C3.73844 11.7663 3.79274 11.6453 3.81759 11.5167C3.84243 11.3882 3.83715 11.2557 3.80215 11.1296C3.78418 11.0984 3.75824 11.0726 3.727 11.0548C3.69575 11.0371 3.66034 11.0279 3.62439 11.0283C3.3528 11.0283 3.11824 11.3049 2.94047 11.4777C2.50709 11.9173 2.10606 12.3876 1.74054 12.885C1.57759 13.0924 1.93559 13.2973 2.09361 13.0899C2.42475 12.6594 2.77917 12.2473 3.15528 11.8554C3.06392 12.0061 2.96763 12.1542 2.8664 12.2949C2.72073 12.5196 3.06639 12.7122 3.21947 12.5023C3.2527 12.4501 3.29747 12.4062 3.35033 12.3739L3.3207 12.448L3.29848 12.4974C3.20712 12.727 3.54538 12.8307 3.67377 12.6554C3.70634 12.61 3.73523 12.5622 3.76018 12.5122C3.76229 12.5562 3.76807 12.6 3.77746 12.6431Z" fill="#585858"/>
<path d="M11.9968 5.56455C11.9968 5.51517 11.8981 5.07075 11.2389 4.64362C10.5796 4.21648 10.1426 4.30536 10.0932 4.31771C10.0284 4.33475 9.97207 4.37521 9.93523 4.43128L6.24655 10.0408C6.22392 10.0758 6.20956 10.1155 6.20458 10.1569L5.95768 12.2432C5.95379 12.2912 5.96271 12.3393 5.98353 12.3827C6.00436 12.4261 6.03633 12.4631 6.07619 12.4901C6.11872 12.5155 6.16736 12.529 6.21692 12.529C6.26649 12.529 6.31512 12.5155 6.35765 12.4901L8.18471 11.4506C8.22091 11.4306 8.25147 11.4017 8.2736 11.3667L11.9549 5.75466C11.9921 5.69875 12.0071 5.63094 11.9968 5.56455ZM7.09588 11.6185C7.00711 11.537 6.91126 11.4634 6.80948 11.3988C6.70818 11.3326 6.6026 11.2732 6.49345 11.221L6.56752 10.5964C6.9939 10.7048 7.37188 10.9524 7.64153 11.3L7.09588 11.6185Z" fill="#585858"/>
</svg>
