<svg width="14" height="13" viewBox="0 0 14 13" fill="none" xmlns="http://www.w3.org/2000/svg">
<path d="M10.6338 0.5H3.3662C2.05938 0.5 1 1.55938 1 2.8662V10.1338C1 11.4406 2.05938 12.5 3.3662 12.5H10.6338C11.9406 12.5 13 11.4406 13 10.1338V2.8662C13 1.55938 11.9406 0.5 10.6338 0.5Z" fill="#585858" stroke="#585858" stroke-width="0.218537"/>
<path d="M3.53539 0.669189H5.75515L8.02994 12.3312H3.53539C2.22857 12.3312 1.16919 11.2718 1.16919 9.96496V3.03539C1.16919 1.72857 2.22857 0.669189 3.53539 0.669189Z" fill="#585858"/>
<path fill-rule="evenodd" clip-rule="evenodd" d="M3.36621 6.76189V6.30981L5.5467 5.17144V5.6671L3.79323 6.53857L5.5467 7.40188V7.90026L3.36621 6.76189ZM7.56215 4.21826H7.95411L6.33266 8.8017H5.93865L7.56215 4.21826ZM8.45333 7.40188L10.2068 6.53857L8.45333 5.6671V5.17144L10.6338 6.30981V6.76189L8.45333 7.90026V7.40188Z" fill="white"/>
</svg>
